<svg width="160" height="46" viewBox="0 0 160 46" fill="currentColor" xmlns="http://www.w3.org/2000/svg">
<g opacity="0.7">
<path d="M53.2848 33.288C51.7808 33.288 50.5488 33.016 49.5888 32.472C48.6288 31.912 47.8368 31.2 47.2128 30.336L48.6768 29.136C49.3328 29.952 50.0208 30.56 50.7408 30.96C51.4768 31.36 52.3488 31.56 53.3568 31.56C54.5728 31.56 55.5008 31.28 56.1408 30.72C56.7808 30.16 57.1008 29.376 57.1008 28.368C57.1008 27.552 56.8688 26.92 56.4048 26.472C55.9408 26.008 55.1328 25.68 53.9808 25.488L52.1088 25.176C51.2928 25.032 50.6048 24.816 50.0448 24.528C49.5008 24.24 49.0608 23.896 48.7248 23.496C48.3888 23.08 48.1488 22.632 48.0048 22.152C47.8608 21.656 47.7888 21.144 47.7888 20.616C47.7888 19.08 48.2928 17.92 49.3008 17.136C50.3088 16.352 51.6688 15.96 53.3808 15.96C54.7248 15.96 55.8528 16.184 56.7648 16.632C57.6928 17.08 58.4368 17.712 58.9968 18.528L57.5808 19.752C57.1168 19.144 56.5568 18.648 55.9008 18.264C55.2448 17.88 54.3968 17.688 53.3568 17.688C52.2208 17.688 51.3488 17.928 50.7408 18.408C50.1328 18.888 49.8288 19.608 49.8288 20.568C49.8288 21.32 50.0528 21.936 50.5008 22.416C50.9648 22.88 51.7888 23.216 52.9728 23.424L54.7728 23.736C55.5888 23.88 56.2768 24.096 56.8368 24.384C57.3968 24.672 57.8448 25.016 58.1808 25.416C58.5328 25.816 58.7808 26.264 58.9248 26.76C59.0688 27.256 59.1408 27.776 59.1408 28.32C59.1408 29.872 58.6288 31.088 57.6048 31.968C56.5968 32.848 55.1568 33.288 53.2848 33.288ZM70.6514 30.984H70.5554C70.4274 31.288 70.2674 31.584 70.0754 31.872C69.8834 32.144 69.6434 32.384 69.3554 32.592C69.0834 32.8 68.7554 32.968 68.3714 33.096C67.9874 33.224 67.5394 33.288 67.0274 33.288C65.7314 33.288 64.6914 32.88 63.9074 32.064C63.1234 31.232 62.7314 30.064 62.7314 28.56V20.616H64.6514V28.224C64.6514 29.36 64.8994 30.208 65.3954 30.768C65.8914 31.312 66.6194 31.584 67.5794 31.584C67.9634 31.584 68.3394 31.536 68.7074 31.44C69.0754 31.344 69.4034 31.2 69.6914 31.008C69.9794 30.816 70.2114 30.576 70.3874 30.288C70.5634 29.984 70.6514 29.624 70.6514 29.208V20.616H72.5714V33H70.6514V30.984ZM82.8821 17.88C82.3221 17.88 81.9301 17.768 81.7061 17.544C81.4821 17.304 81.3701 17.008 81.3701 16.656V16.272C81.3701 15.92 81.4821 15.632 81.7061 15.408C81.9301 15.168 82.3221 15.048 82.8821 15.048C83.4421 15.048 83.8341 15.168 84.0581 15.408C84.2821 15.632 84.3941 15.92 84.3941 16.272V16.656C84.3941 17.008 84.2821 17.304 84.0581 17.544C83.8341 17.768 83.4421 17.88 82.8821 17.88ZM77.4581 31.368H81.9221V22.248H77.4581V20.616H83.8421V31.368H88.0181V33H77.4581V31.368ZM90.0247 20.616H91.7287L93.1447 31.32H93.3607L95.4727 20.616H97.5847L99.6967 31.32H99.9127L101.329 20.616H102.985L101.089 33H98.5927L96.6247 22.632H96.4327L94.4167 33H91.9207L90.0247 20.616ZM115.575 33C114.823 33 114.287 32.808 113.967 32.424C113.647 32.04 113.447 31.56 113.367 30.984H113.247C112.975 31.704 112.535 32.272 111.927 32.688C111.335 33.088 110.535 33.288 109.527 33.288C108.231 33.288 107.199 32.952 106.431 32.28C105.663 31.608 105.279 30.688 105.279 29.52C105.279 28.368 105.695 27.48 106.527 26.856C107.375 26.232 108.735 25.92 110.607 25.92H113.247V24.696C113.247 23.784 112.991 23.104 112.479 22.656C111.967 22.192 111.239 21.96 110.295 21.96C109.463 21.96 108.783 22.128 108.255 22.464C107.727 22.784 107.303 23.224 106.983 23.784L105.687 22.824C105.847 22.504 106.063 22.192 106.335 21.888C106.607 21.584 106.943 21.32 107.343 21.096C107.743 20.856 108.199 20.672 108.711 20.544C109.223 20.4 109.791 20.328 110.415 20.328C111.871 20.328 113.023 20.696 113.871 21.432C114.735 22.168 115.167 23.192 115.167 24.504V31.32H116.895V33H115.575ZM109.863 31.68C110.359 31.68 110.807 31.624 111.207 31.512C111.623 31.384 111.983 31.224 112.287 31.032C112.591 30.824 112.823 30.584 112.983 30.312C113.159 30.024 113.247 29.72 113.247 29.4V27.36H110.607C109.455 27.36 108.615 27.52 108.087 27.84C107.559 28.16 107.295 28.624 107.295 29.232V29.736C107.295 30.376 107.519 30.864 107.967 31.2C108.431 31.52 109.063 31.68 109.863 31.68ZM119.934 31.368H123.558V22.248H119.934V20.616H125.478V23.736H125.598C125.854 22.76 126.334 22 127.038 21.456C127.758 20.896 128.67 20.616 129.774 20.616H131.502V22.536H129.174C128.07 22.536 127.174 22.856 126.486 23.496C125.814 24.136 125.478 24.976 125.478 26.016V31.368H130.278V33H119.934V31.368ZM139.893 33.288C138.997 33.288 138.189 33.136 137.469 32.832C136.765 32.528 136.157 32.096 135.645 31.536C135.149 30.96 134.765 30.28 134.493 29.496C134.221 28.696 134.085 27.808 134.085 26.832C134.085 25.84 134.221 24.944 134.493 24.144C134.781 23.344 135.173 22.664 135.669 22.104C136.165 21.528 136.757 21.088 137.445 20.784C138.149 20.48 138.925 20.328 139.773 20.328C140.605 20.328 141.357 20.48 142.029 20.784C142.717 21.088 143.301 21.512 143.781 22.056C144.261 22.584 144.629 23.216 144.885 23.952C145.141 24.688 145.269 25.496 145.269 26.376V27.288H136.101V27.864C136.101 28.408 136.189 28.912 136.365 29.376C136.541 29.84 136.789 30.24 137.109 30.576C137.445 30.912 137.845 31.176 138.309 31.368C138.789 31.544 139.317 31.632 139.893 31.632C140.725 31.632 141.445 31.44 142.053 31.056C142.661 30.672 143.125 30.144 143.445 29.472L144.861 30.432C144.493 31.264 143.877 31.952 143.013 32.496C142.165 33.024 141.125 33.288 139.893 33.288ZM139.773 21.912C139.245 21.912 138.757 22.008 138.309 22.2C137.861 22.392 137.469 22.656 137.133 22.992C136.813 23.328 136.557 23.728 136.365 24.192C136.189 24.64 136.101 25.136 136.101 25.68V25.848H143.205V25.584C143.205 25.04 143.117 24.544 142.941 24.096C142.781 23.648 142.549 23.264 142.245 22.944C141.957 22.608 141.597 22.352 141.165 22.176C140.749 22 140.285 21.912 139.773 21.912Z" fill="currentColor"/>
<path d="M23.3169 2.88977L31.4318 17.0436H15.2021L23.3169 2.88977Z" fill="currentColor"/>
<mask id="mask0_210_41" style="mask-type:luminance" maskUnits="userSpaceOnUse" x="6" y="10" width="34" height="34">
<path d="M6.91191 10.9341H39.0881V43.1103H6.91191V10.9341Z" fill="currentColor"/>
</mask>
<g mask="url(#mask0_210_41)">
<path fill-rule="evenodd" clip-rule="evenodd" d="M33.5132 14.7835L35.8228 17.0929C36.4303 17.7005 36.4303 18.6955 35.8228 19.3029L33.9637 21.1621C34.4828 22.1322 34.8711 23.1668 35.1184 24.2388H37.5275C38.3863 24.2388 39.0907 24.9432 39.0907 25.8021V29.0674C39.0907 29.9262 38.3863 30.6306 37.5275 30.6306H34.8984C34.5795 31.6835 34.1216 32.6891 33.5368 33.6209L35.2415 35.3255C35.849 35.9331 35.849 36.9281 35.2415 37.5355L32.932 39.8451C32.3244 40.4526 31.3294 40.4526 30.722 39.8451L28.8629 37.986C27.8933 38.5062 26.8585 38.8945 25.7861 39.1407V41.5498C25.7861 42.4086 25.0817 43.113 24.2229 43.113H20.955C20.0961 43.113 19.3917 42.4086 19.3917 41.5498V38.9207C18.3383 38.6021 17.3325 38.1432 16.4014 37.5565L14.6968 39.2611C14.0892 39.8687 13.0942 39.8687 12.4868 39.2611L10.1772 36.9517C9.56977 36.3441 9.56977 35.3491 10.1772 34.7417L12.0363 32.8825C11.5161 31.9129 11.1278 30.8782 10.8816 29.8058H8.47249C7.61618 29.8058 6.91191 29.1014 6.91191 28.2425V24.9773C6.91191 24.1184 7.6163 23.414 8.4752 23.414H11.1042C11.4231 22.3611 11.881 21.3555 12.4658 20.4237L10.7612 18.7191C10.1537 18.1115 10.1537 17.1165 10.7612 16.5091L13.0706 14.1995C13.6782 13.5919 14.6732 13.5919 15.2806 14.1995L17.1398 16.0586C18.1094 15.5384 19.1441 15.1501 20.2165 14.9039V12.4948C20.2165 11.6386 20.9209 10.9343 21.7798 10.9343H25.045C25.9039 10.9343 26.6083 11.6386 26.6083 12.4975V15.1239C27.6612 15.4428 28.6668 15.9007 29.5986 16.4855L31.3032 14.7808C31.9108 14.1759 32.9058 14.1759 33.5132 14.7835ZM23 17.8889C28.0432 17.8889 32.1334 21.979 32.1334 27.0223C32.1334 32.0655 28.0432 36.1557 23 36.1557C17.9567 36.1557 13.8666 32.0655 13.8666 27.0223C13.8666 21.979 17.9567 17.8889 23 17.8889Z" fill="currentColor"/>
</g>
<path d="M25.9393 35.4952C25.9393 36.5374 26.7842 37.3824 27.8265 37.3824C28.8687 37.3824 29.7136 36.5374 29.7136 35.4952H25.9393ZM18.8106 13.7332L17.5722 15.5521L20.6922 17.6761L21.9306 15.8572L18.8106 13.7332ZM25.9393 34.2075V35.4952H29.7136V34.2075H25.9393ZM18.7522 26.6836L19.5868 27.48L22.1923 24.749L21.3576 23.9528L18.7522 26.6836ZM21.0397 28.5727L23.539 30.0298L25.44 26.7691L22.9407 25.312L21.0397 28.5727ZM19.5868 27.48C20.0268 27.8997 20.5144 28.2664 21.0397 28.5727L22.9407 25.312C22.6701 25.1542 22.4189 24.9653 22.1923 24.749L19.5868 27.48ZM28.8011 30.3497C28.052 28.8553 26.8842 27.6111 25.44 26.7691L23.539 30.0298C24.3502 30.5027 25.0061 31.2015 25.4267 32.0409L28.8011 30.3497ZM16.0719 20.4222C16.0719 21.5929 16.3095 22.7514 16.7702 23.8277C17.2308 24.9039 17.9051 25.8755 18.7522 26.6836L21.3576 23.9528C20.88 23.4971 20.4998 22.9493 20.24 22.3424C19.9802 21.7356 19.8463 21.0823 19.8463 20.4222H16.0719ZM29.7136 34.2075C29.7136 32.8681 29.4011 31.5472 28.8011 30.3497L25.4267 32.0409C25.7638 32.7134 25.9393 33.4552 25.9393 34.2075H29.7136ZM17.5722 15.5521C16.5947 16.9881 16.0719 18.6851 16.0719 20.4222H19.8463C19.8463 19.4427 20.141 18.4858 20.6922 17.6761L17.5722 15.5521Z" fill="currentColor"/>
</g>
</svg>
